<?xml version="1.0" encoding="UTF-8"?> <svg xmlns="http://www.w3.org/2000/svg" width="898" height="228" viewBox="0 0 898 228" fill="none"><path d="M338.395 83V0.381822H369.377C375.724 0.381822 381.049 1.56516 385.352 3.93182C389.682 6.29849 392.95 9.55265 395.155 13.6943C397.387 17.8091 398.503 22.4886 398.503 27.733C398.503 33.0311 397.387 37.7375 395.155 41.8523C392.923 45.967 389.628 49.2078 385.272 51.5744C380.915 53.9142 375.549 55.0841 369.176 55.0841H348.642V42.7801H367.159C370.87 42.7801 373.909 42.1347 376.276 40.8438C378.642 39.5528 380.39 37.7778 381.52 35.5188C382.676 33.2597 383.255 30.6644 383.255 27.733C383.255 24.8015 382.676 22.2197 381.52 19.9875C380.39 17.7553 378.629 16.0206 376.235 14.7835C373.869 13.5195 370.816 12.8875 367.078 12.8875H353.362V83H338.395ZM435.636 84.2102C429.584 84.2102 424.34 82.879 419.903 80.2165C415.465 77.554 412.023 73.8292 409.575 69.042C407.155 64.2549 405.945 58.661 405.945 52.2602C405.945 45.8595 407.155 40.2521 409.575 35.4381C412.023 30.6241 415.465 26.8858 419.903 24.2233C424.34 21.5608 429.584 20.2296 435.636 20.2296C441.687 20.2296 446.931 21.5608 451.368 24.2233C455.806 26.8858 459.235 30.6241 461.655 35.4381C464.103 40.2521 465.326 45.8595 465.326 52.2602C465.326 58.661 464.103 64.2549 461.655 69.042C459.235 73.8292 455.806 77.554 451.368 80.2165C446.931 82.879 441.687 84.2102 435.636 84.2102ZM435.716 72.5114C438.997 72.5114 441.74 71.6104 443.946 69.8085C446.151 67.9797 447.792 65.5324 448.867 62.4665C449.97 59.4006 450.521 55.985 450.521 52.2199C450.521 48.4278 449.97 44.9989 448.867 41.933C447.792 38.8402 446.151 36.3794 443.946 34.5506C441.74 32.7218 438.997 31.8074 435.716 31.8074C432.354 31.8074 429.557 32.7218 427.325 34.5506C425.12 36.3794 423.466 38.8402 422.363 41.933C421.288 44.9989 420.75 48.4278 420.75 52.2199C420.75 55.985 421.288 59.4006 422.363 62.4665C423.466 65.5324 425.12 67.9797 427.325 69.8085C429.557 71.6104 432.354 72.5114 435.716 72.5114ZM515.852 56.9398V21.0364H530.455V83H516.295V71.9869H515.65C514.252 75.4563 511.952 78.2936 508.752 80.4989C505.578 82.7042 501.665 83.8068 497.013 83.8068C492.952 83.8068 489.361 82.9059 486.241 81.104C483.149 79.2752 480.728 76.6261 478.98 73.1568C477.232 69.6606 476.358 65.4383 476.358 60.4898V21.0364H490.961V58.2307C490.961 62.1572 492.037 65.2769 494.189 67.5898C496.34 69.9027 499.164 71.0591 502.66 71.0591C504.812 71.0591 506.896 70.5347 508.913 69.4858C510.93 68.4369 512.584 66.8771 513.875 64.8063C515.193 62.7085 515.852 60.0864 515.852 56.9398ZM544.109 106.236V21.0364H558.47V31.283H559.317C560.07 29.7769 561.133 28.1767 562.504 26.4824C563.876 24.7612 565.732 23.2955 568.071 22.0852C570.411 20.8481 573.396 20.2296 577.027 20.2296C581.814 20.2296 586.131 21.4532 589.976 23.9006C593.849 26.321 596.915 29.9114 599.174 34.6716C601.46 39.4049 602.603 45.214 602.603 52.0989C602.603 58.903 601.487 64.6852 599.255 69.4455C597.023 74.2057 593.984 77.8364 590.138 80.3375C586.292 82.8386 581.935 84.0892 577.067 84.0892C573.517 84.0892 570.572 83.4975 568.233 82.3142C565.893 81.1309 564.01 79.7055 562.585 78.0381C561.186 76.3438 560.097 74.7436 559.317 73.2375H558.712V106.236H544.109ZM558.43 52.0182C558.43 56.0254 558.995 59.535 560.124 62.5472C561.281 65.5593 562.935 67.9125 565.086 69.6068C567.264 71.2742 569.9 72.108 572.993 72.108C576.22 72.108 578.923 71.2473 581.101 69.5261C583.28 67.778 584.92 65.3979 586.023 62.3858C587.153 59.3468 587.717 55.8909 587.717 52.0182C587.717 48.1724 587.166 44.7568 586.063 41.7716C584.961 38.7864 583.32 36.4466 581.142 34.7523C578.963 33.058 576.247 32.2108 572.993 32.2108C569.873 32.2108 567.224 33.0311 565.046 34.6716C562.867 36.3121 561.213 38.6116 560.084 41.5699C558.981 44.5282 558.43 48.011 558.43 52.0182ZM631.576 84.2506C627.65 84.2506 624.113 83.5513 620.967 82.1528C617.847 80.7275 615.373 78.6297 613.544 75.8597C611.742 73.0896 610.841 69.6741 610.841 65.6131C610.841 62.1169 611.487 59.2258 612.777 56.9398C614.068 54.6538 615.83 52.825 618.062 51.4534C620.294 50.0818 622.809 49.0464 625.606 48.3472C628.43 47.621 631.348 47.0966 634.36 46.7739C637.99 46.3973 640.935 46.0612 643.194 45.7653C645.454 45.4426 647.094 44.9585 648.116 44.3131C649.165 43.6407 649.689 42.6053 649.689 41.2068V40.9648C649.689 37.9258 648.788 35.5725 646.987 33.9051C645.185 32.2377 642.589 31.404 639.201 31.404C635.624 31.404 632.787 32.1839 630.689 33.7438C628.618 35.3036 627.219 37.1458 626.493 39.2705L612.858 37.3341C613.934 33.5689 615.709 30.4224 618.183 27.8943C620.657 25.3394 623.683 23.4299 627.26 22.1659C630.837 20.875 634.79 20.2296 639.12 20.2296C642.105 20.2296 645.077 20.5792 648.035 21.2784C650.994 21.9777 653.697 23.1341 656.144 24.7477C658.591 26.3345 660.554 28.4994 662.034 31.2426C663.54 33.9858 664.293 37.4148 664.293 41.5295V83H650.254V74.4881H649.77C648.883 76.2093 647.632 77.8229 646.018 79.329C644.432 80.8081 642.428 82.0049 640.008 82.9193C637.614 83.8068 634.804 84.2506 631.576 84.2506ZM635.368 73.5199C638.3 73.5199 640.841 72.9417 642.993 71.7852C645.144 70.6019 646.798 69.042 647.955 67.1057C649.138 65.1693 649.73 63.0581 649.73 60.7722V53.4705C649.272 53.847 648.493 54.1966 647.39 54.5193C646.314 54.842 645.104 55.1244 643.759 55.3665C642.415 55.6085 641.083 55.8237 639.765 56.0119C638.448 56.2002 637.305 56.3616 636.337 56.496C634.158 56.7919 632.208 57.2759 630.487 57.9483C628.766 58.6206 627.408 59.5619 626.413 60.7722C625.418 61.9555 624.92 63.4884 624.92 65.371C624.92 68.0604 625.902 70.0909 627.865 71.4625C629.828 72.8341 632.329 73.5199 635.368 73.5199Z" fill="#0A2640"></path><path d="M383.295 142.094C382.918 138.571 381.332 135.827 378.535 133.864C375.765 131.901 372.161 130.919 367.723 130.919C364.604 130.919 361.928 131.39 359.695 132.331C357.463 133.273 355.755 134.55 354.572 136.164C353.389 137.777 352.784 139.62 352.757 141.69C352.757 143.412 353.147 144.904 353.927 146.168C354.734 147.432 355.823 148.508 357.194 149.395C358.566 150.256 360.085 150.982 361.753 151.574C363.42 152.166 365.101 152.663 366.795 153.066L374.541 155.003C377.661 155.729 380.659 156.711 383.537 157.948C386.441 159.185 389.037 160.745 391.323 162.627C393.636 164.51 395.464 166.782 396.809 169.445C398.154 172.107 398.826 175.227 398.826 178.804C398.826 183.645 397.589 187.908 395.115 191.592C392.641 195.25 389.064 198.114 384.384 200.185C379.731 202.229 374.097 203.251 367.481 203.251C361.054 203.251 355.473 202.255 350.74 200.265C346.033 198.275 342.349 195.371 339.686 191.552C337.051 187.733 335.625 183.08 335.41 177.594H350.135C350.35 180.471 351.237 182.865 352.797 184.774C354.357 186.684 356.387 188.109 358.889 189.051C361.417 189.992 364.241 190.463 367.36 190.463C370.614 190.463 373.465 189.978 375.912 189.01C378.387 188.015 380.323 186.644 381.722 184.895C383.12 183.12 383.833 181.05 383.86 178.683C383.833 176.531 383.201 174.756 381.964 173.358C380.727 171.933 378.992 170.749 376.76 169.808C374.554 168.84 371.973 167.979 369.014 167.226L359.615 164.806C352.811 163.058 347.432 160.409 343.478 156.859C339.552 153.282 337.589 148.535 337.589 142.618C337.589 137.75 338.906 133.488 341.542 129.83C344.205 126.173 347.822 123.335 352.394 121.318C356.966 119.274 362.143 118.252 367.925 118.252C373.788 118.252 378.925 119.274 383.335 121.318C387.773 123.335 391.255 126.146 393.784 129.749C396.312 133.326 397.616 137.441 397.697 142.094H383.295ZM437.592 203.21C431.38 203.21 426.014 201.919 421.496 199.338C417.005 196.729 413.549 193.044 411.128 188.284C408.708 183.497 407.498 177.863 407.498 171.381C407.498 165.007 408.708 159.413 411.128 154.599C413.576 149.759 416.991 145.993 421.375 143.304C425.759 140.588 430.909 139.23 436.826 139.23C440.645 139.23 444.248 139.848 447.637 141.085C451.052 142.295 454.065 144.178 456.673 146.733C459.309 149.288 461.38 152.542 462.886 156.495C464.392 160.422 465.145 165.102 465.145 170.534V175.012H414.356V165.169H451.147C451.12 162.372 450.515 159.884 449.331 157.706C448.148 155.5 446.494 153.766 444.369 152.502C442.272 151.238 439.824 150.606 437.027 150.606C434.042 150.606 431.42 151.332 429.161 152.784C426.902 154.209 425.14 156.092 423.876 158.432C422.639 160.745 422.007 163.286 421.98 166.056V174.649C421.98 178.253 422.639 181.345 423.957 183.927C425.275 186.482 427.117 188.445 429.484 189.817C431.85 191.162 434.62 191.834 437.794 191.834C439.918 191.834 441.841 191.538 443.562 190.947C445.284 190.328 446.776 189.427 448.04 188.244C449.304 187.06 450.259 185.595 450.905 183.847L464.54 185.38C463.679 188.983 462.039 192.13 459.618 194.819C457.225 197.482 454.159 199.553 450.42 201.032C446.682 202.484 442.406 203.21 437.592 203.21ZM476.136 202V140.036H490.296V150.364H490.941C492.071 146.787 494.007 144.03 496.75 142.094C499.52 140.13 502.68 139.149 506.23 139.149C507.037 139.149 507.938 139.189 508.933 139.27C509.955 139.324 510.802 139.418 511.475 139.552V152.986C510.856 152.771 509.875 152.582 508.53 152.421C507.212 152.233 505.935 152.139 504.697 152.139C502.035 152.139 499.641 152.717 497.517 153.873C495.419 155.003 493.765 156.576 492.555 158.593C491.345 160.61 490.739 162.937 490.739 165.572V202H476.136ZM577.047 140.036L554.981 202H538.844L516.778 140.036H532.349L546.59 186.065H547.235L561.516 140.036H577.047ZM585.789 202V140.036H600.393V202H585.789ZM593.131 131.242C590.819 131.242 588.828 130.476 587.161 128.943C585.494 127.383 584.66 125.514 584.66 123.335C584.66 121.13 585.494 119.261 587.161 117.728C588.828 116.168 590.819 115.388 593.131 115.388C595.471 115.388 597.461 116.168 599.102 117.728C600.769 119.261 601.603 121.13 601.603 123.335C601.603 125.514 600.769 127.383 599.102 128.943C597.461 130.476 595.471 131.242 593.131 131.242ZM641.075 203.21C634.889 203.21 629.578 201.852 625.14 199.136C620.73 196.42 617.328 192.668 614.934 187.881C612.567 183.067 611.384 177.527 611.384 171.26C611.384 164.967 612.594 159.413 615.015 154.599C617.435 149.759 620.851 145.993 625.261 143.304C629.699 140.588 634.943 139.23 640.994 139.23C646.023 139.23 650.474 140.157 654.347 142.013C658.247 143.842 661.353 146.437 663.666 149.799C665.979 153.134 667.296 157.033 667.619 161.498H653.661C653.096 158.513 651.752 156.025 649.627 154.035C647.529 152.018 644.719 151.009 641.196 151.009C638.211 151.009 635.589 151.816 633.329 153.43C631.07 155.016 629.309 157.302 628.045 160.288C626.808 163.273 626.189 166.85 626.189 171.018C626.189 175.241 626.808 178.871 628.045 181.91C629.282 184.922 631.017 187.249 633.249 188.889C635.508 190.503 638.157 191.31 641.196 191.31C643.347 191.31 645.27 190.906 646.965 190.099C648.686 189.266 650.125 188.069 651.281 186.509C652.438 184.949 653.231 183.053 653.661 180.821H667.619C667.27 185.205 665.979 189.091 663.746 192.48C661.514 195.841 658.475 198.477 654.629 200.386C650.784 202.269 646.265 203.21 641.075 203.21ZM636.879 201.677H644.786L644.141 205.106C646.669 205.483 648.807 206.451 650.555 208.011C652.33 209.598 653.217 211.87 653.217 214.828C653.244 218.647 651.537 221.713 648.094 224.026C644.652 226.339 639.744 227.495 633.37 227.495L633.208 220.315C636.301 220.315 638.762 219.898 640.591 219.064C642.42 218.257 643.347 216.966 643.374 215.191C643.428 213.47 642.783 212.206 641.438 211.399C640.12 210.62 638.022 210.082 635.145 209.786L636.879 201.677ZM705.276 203.21C699.225 203.21 693.98 201.879 689.543 199.216C685.105 196.554 681.663 192.829 679.216 188.042C676.795 183.255 675.585 177.661 675.585 171.26C675.585 164.859 676.795 159.252 679.216 154.438C681.663 149.624 685.105 145.886 689.543 143.223C693.98 140.561 699.225 139.23 705.276 139.23C711.327 139.23 716.571 140.561 721.009 143.223C725.446 145.886 728.875 149.624 731.296 154.438C733.743 159.252 734.967 164.859 734.967 171.26C734.967 177.661 733.743 183.255 731.296 188.042C728.875 192.829 725.446 196.554 721.009 199.216C716.571 201.879 711.327 203.21 705.276 203.21ZM705.356 191.511C708.637 191.511 711.381 190.61 713.586 188.809C715.791 186.98 717.432 184.532 718.508 181.466C719.61 178.401 720.162 174.985 720.162 171.22C720.162 167.428 719.61 163.999 718.508 160.933C717.432 157.84 715.791 155.379 713.586 153.551C711.381 151.722 708.637 150.807 705.356 150.807C701.995 150.807 699.198 151.722 696.966 153.551C694.76 155.379 693.106 157.84 692.004 160.933C690.928 163.999 690.39 167.428 690.39 171.22C690.39 174.985 690.928 178.401 692.004 181.466C693.106 184.532 694.76 186.98 696.966 188.809C699.198 190.61 701.995 191.511 705.356 191.511ZM794.972 156.415L781.66 157.867C781.283 156.522 780.624 155.258 779.683 154.075C778.768 152.892 777.531 151.937 775.971 151.211C774.412 150.485 772.502 150.122 770.243 150.122C767.204 150.122 764.649 150.78 762.578 152.098C760.534 153.416 759.526 155.124 759.553 157.222C759.526 159.023 760.185 160.489 761.529 161.619C762.901 162.748 765.16 163.676 768.307 164.402L778.876 166.661C784.739 167.925 789.096 169.929 791.946 172.672C794.824 175.415 796.276 179.006 796.303 183.443C796.276 187.343 795.133 190.785 792.874 193.77C790.642 196.729 787.536 199.042 783.556 200.709C779.575 202.377 775.003 203.21 769.84 203.21C762.256 203.21 756.151 201.623 751.525 198.45C746.899 195.25 744.143 190.799 743.255 185.097L757.495 183.726C758.141 186.523 759.512 188.634 761.61 190.059C763.708 191.484 766.438 192.197 769.799 192.197C773.269 192.197 776.052 191.484 778.15 190.059C780.275 188.634 781.337 186.872 781.337 184.774C781.337 182.999 780.651 181.534 779.279 180.377C777.935 179.221 775.837 178.333 772.986 177.715L762.417 175.496C756.473 174.259 752.076 172.175 749.225 169.243C746.375 166.285 744.963 162.547 744.99 158.028C744.963 154.209 745.998 150.902 748.096 148.105C750.221 145.281 753.165 143.102 756.931 141.569C760.723 140.009 765.093 139.23 770.041 139.23C777.303 139.23 783.018 140.776 787.186 143.869C791.382 146.962 793.977 151.144 794.972 156.415Z" fill="#0A2640"></path><path d="M30.7842 0.69165C14.2882 0.69165 0.691772 14.2881 0.691772 30.7841V171.216C0.691772 187.712 14.2882 201.308 30.7842 201.308H251.462C267.958 201.308 281.555 187.712 281.555 171.216V30.7841C281.555 14.2881 267.958 0.69165 251.462 0.69165H30.7842ZM30.7842 20.7533H251.462C257.144 20.7533 261.493 25.1026 261.493 30.7841V171.216C261.493 176.897 257.144 181.246 251.462 181.246H30.7842C25.1027 181.246 20.7534 176.897 20.7534 171.216V30.7841C20.7534 25.1026 25.1027 20.7533 30.7842 20.7533ZM90.9692 40.8149C68.9092 40.8149 50.8459 58.8783 50.8459 80.9382C50.8459 92.1053 55.6262 102.175 63.0709 109.463C49.7096 118.515 40.8151 133.913 40.8151 151.154H60.8767C60.8767 134.423 74.2381 121.062 90.9692 121.062C107.7 121.062 121.062 134.423 121.062 151.154H141.123C141.123 133.913 132.229 118.515 118.867 109.463C126.312 102.175 131.092 92.1053 131.092 80.9382C131.092 58.8783 113.029 40.8149 90.9692 40.8149ZM161.185 50.8458V70.9074H241.431V50.8458H161.185ZM90.9692 60.8766C102.175 60.8766 111.031 69.7319 111.031 80.9382C111.031 92.1445 102.175 101 90.9692 101C79.7629 101 70.9075 92.1445 70.9075 80.9382C70.9075 69.7319 79.7629 60.8766 90.9692 60.8766ZM161.185 90.969V111.031H241.431V90.969H161.185ZM161.185 131.092V151.154H211.339V131.092H161.185Z" fill="#0A2640"></path></svg> 